<?xml version="1.0" standalone="no"?><!DOCTYPE svg PUBLIC "-//W3C//DTD SVG 1.1//EN" "http://www.w3.org/Graphics/SVG/1.1/DTD/svg11.dtd"><svg t="1584348246211" class="icon" viewBox="0 0 1024 1024" version="1.1" xmlns="http://www.w3.org/2000/svg" p-id="15462" xmlns:xlink="http://www.w3.org/1999/xlink" width="200" height="200"><defs><style type="text/css"></style></defs><path d="M512 197.12C302.08 197.12 122.88 327.68 50.176 512 122.88 696.32 302.08 826.88 512 826.88s389.12-130.56 461.824-314.88C901.12 327.68 721.92 197.12 512 197.12z m0 524.8c-115.712 0-209.92-94.208-209.92-209.92s94.208-209.92 209.92-209.92 209.92 94.208 209.92 209.92-94.208 209.92-209.92 209.92z m0-335.872c-69.632 0-125.952 56.32-125.952 125.952s56.32 125.952 125.952 125.952 125.952-56.32 125.952-125.952-56.32-125.952-125.952-125.952z m0 0" p-id="15463"></path></svg>