<?xml version="1.0" standalone="no"?><!DOCTYPE svg PUBLIC "-//W3C//DTD SVG 1.1//EN" "http://www.w3.org/Graphics/SVG/1.1/DTD/svg11.dtd"><svg t="1584346166701" class="icon" viewBox="0 0 1024 1024" version="1.1" xmlns="http://www.w3.org/2000/svg" p-id="3653" xmlns:xlink="http://www.w3.org/1999/xlink" width="200" height="200"><defs><style type="text/css"></style></defs><path d="M918.4768 209.0752c-62.1312-69.888-155.3408-95.7952-238.1824-77.6704-20.736 5.1712-31.0784 23.296-28.4928 44.032 5.1968 20.6848 23.296 31.0528 44.032 28.4672 59.5456-12.9536 126.848 5.1712 170.88 54.3744 44.0064 49.1776 56.96 116.48 36.2496 176.0512-2.6112 10.3424-2.6112 18.1248 2.56 28.4672 5.1968 7.7824 12.9536 15.5392 20.736 18.1248 18.1248 5.1968 38.8352-5.1712 46.592-23.296 23.296-85.4272 7.7824-178.6368-54.3744-248.5504z" p-id="3654"></path><path d="M807.168 436.9152a30.1312 30.1312 0 0 0 38.8352-20.7104c12.928-41.4208 5.1712-85.4528-25.9072-119.0912a126.0288 126.0288 0 0 0-116.5056-38.8352c-18.1248 2.56-28.4672 20.7104-23.296 36.2496 2.5856 18.1248 20.7104 28.4672 36.2496 23.296 20.7104-5.1712 41.4208 2.5856 56.96 18.1248s18.1248 38.8352 12.928 59.5456c-5.1712 18.1248 5.1968 36.2496 20.736 41.4208z m-62.1568 59.5456c-12.928-5.1712-23.296-7.7568-15.5392-23.296 15.5392-38.8352 15.5392-72.4992 0-95.7952-31.0528-44.032-116.48-41.4208-212.3008 0 0 0-31.0528 12.9536-23.296-10.368 15.5392-49.1776 12.9536-88.0128-10.3424-111.3088-51.7888-51.7888-191.616 2.56-310.7072 121.6768-88.0128 90.624-139.8016 183.808-139.8016 266.6752 0 157.952 201.9328 253.7216 398.72 253.7216 258.8928 0 429.7728-150.1696 429.7728-269.2608 0-72.4992-62.1312-113.92-116.48-132.0448zM431.744 840.8064c-157.952 15.5392-292.5824-56.96-302.9248-157.9264-10.368-103.552 108.7488-199.3472 266.6752-214.8864 157.952-15.5392 292.5568 56.96 302.9248 157.9264 10.3424 103.552-108.7488 199.3472-266.6752 214.8864z" p-id="3655"></path><path d="M447.2832 545.664c-75.0848-20.736-160.512 18.1248-191.5904 82.8416-33.664 67.328 0 142.4128 75.0592 165.7088 77.696 25.8816 170.88-12.9536 201.984-85.4528 31.0528-69.888-7.7824-142.3872-85.4528-163.0976z m-56.96 173.4656c-15.5392 23.296-46.592 36.2496-72.4992 23.296-23.296-10.3424-31.0784-38.8352-15.5392-62.1312 15.5392-23.296 46.592-33.664 69.888-23.296 25.9072 7.7568 33.664 36.2496 18.1504 62.1312z" p-id="3656"></path></svg>