<?xml version="1.0" standalone="no"?><!DOCTYPE svg PUBLIC "-//W3C//DTD SVG 1.1//EN" "http://www.w3.org/Graphics/SVG/1.1/DTD/svg11.dtd"><svg t="1584345968473" class="icon" viewBox="0 0 1024 1024" version="1.1" xmlns="http://www.w3.org/2000/svg" p-id="2892" xmlns:xlink="http://www.w3.org/1999/xlink" width="200" height="200"><defs><style type="text/css"></style></defs><path d="M512 0C228.693333 0 0 228.693333 0 512s228.693333 512 512 512 512-228.693333 512-512S795.306667 0 512 0z m0 34.133333c112.64 0 215.04 37.546667 293.546667 102.4h-3.413334c-27.306667 0-85.333333 10.24-85.333333 102.4 0 30.72 27.306667 64.853333 61.44 105.813334 40.96 51.2 88.746667 105.813333 78.506667 157.013333-13.653333 34.133333-27.306667 64.853333-44.373334 98.986667-20.48 44.373333-44.373333 92.16-71.68 167.253333L583.68 296.96c13.653333-3.413333 23.893333-6.826667 37.546667-10.24 10.24-3.413333 13.653333-13.653333 10.24-20.48-3.413333-10.24-13.653333-13.653333-20.48-10.24-34.133333 10.24-81.92 17.066667-112.64 17.066667-34.133333 0-98.986667-6.826667-129.706667-17.066667-10.24-3.413333-17.066667 3.413333-20.48 10.24-3.413333 10.24 3.413333 17.066667 10.24 20.48 17.066667 6.826667 37.546667 10.24 58.026667 13.653333l81.92 228.693334-95.573334 266.24L242.346667 296.96c13.653333-3.413333 23.893333-6.826667 37.546666-10.24 10.24-3.413333 13.653333-13.653333 10.24-20.48-3.413333-6.826667-13.653333-13.653333-23.893333-10.24-30.72 13.653333-81.92 17.066667-112.64 17.066667-20.48 0-37.546667-3.413333-51.2-10.24C187.733333 126.293333 337.92 34.133333 512 34.133333zM34.133333 512c0-68.266667 17.066667-136.533333 40.96-194.56l225.28 624.64C143.36 860.16 34.133333 699.733333 34.133333 512z m334.506667 457.386667c3.413333-3.413333 3.413333-3.413333 3.413333-6.826667L512 580.266667l136.533333 382.293333c0 3.413333 3.413333 3.413333 3.413334 6.826667-40.96 13.653333-88.746667 20.48-139.946667 20.48-51.2 0-98.986667-6.826667-143.36-20.48z m341.333333-23.893334c58.026667-177.493333 98.986667-262.826667 133.12-334.506666 13.653333-30.72 27.306667-58.026667 40.96-88.746667 0-3.413333 3.413333-3.413333 3.413334-6.826667s0-3.413333 3.413333-6.826666c6.826667-13.653333 10.24-27.306667 13.653333-44.373334 23.893333-71.68 30.72-133.12 27.306667-187.733333 37.546667 68.266667 61.44 146.773333 61.44 232.106667-3.413333 197.973333-119.466667 361.813333-283.306667 436.906666z" p-id="2893"></path></svg>